<svg id="Layer_1" enable-background="new 0 0 512 512" height="512" viewBox="0 0 512 512" width="512" xmlns="http://www.w3.org/2000/svg"><g><path d="m152.475 61.119c-2.848-3.253-6.962-5.119-11.286-5.119s-8.438 1.866-11.286 5.119l-106.707 121.881h59.242c1.375-3.871 3.277-7.598 5.737-11.061l72.263-101.724z"/><path d="m392.606 183-125.516-176.687c-2.813-3.96-7.37-6.313-12.228-6.313s-9.415 2.353-12.229 6.313l-125.516 176.687z"/><path d="m427.285 183h61.519l-106.707-121.881c-2.848-3.253-6.962-5.119-11.286-5.119s-8.438 1.866-11.286 5.119l-9.221 10.532 71.243 100.287c2.46 3.463 4.363 7.191 5.738 11.062z"/><path d="m361.312 360.692c-41.042-30.337-83.48-61.707-80.973-88.755 1.674-18.066 24.49-38.417 66.011-58.937h-191.164c-30.572 18.401-48.787 39.994-55.192 65.224-14.7 57.9 39.757 115.424 75.792 153.49 10.521 11.112 19.606 20.709 24.398 27.529 5.884 8.371 6.958 15.466-4.965 26.958-4.405 4.245-5.79 10.74-3.501 16.413s7.793 9.388 13.911 9.388h241.371c6.981 0 13.04-4.816 14.614-11.619 5.996-25.913-2.956-51.63-27.369-78.622-19.531-21.595-46.679-41.663-72.933-61.069z"/></g></svg>